<svg width="250" height="77" viewBox="0 0 250 77" fill="none" xmlns="http://www.w3.org/2000/svg">
<g clip-path="url(#clip0_2960_122)">
<path d="M3.79667 77.6051H0.419006L4.80617 64.6483H8.99015L13.3773 77.6051H9.99965L6.94577 67.9128H6.8442L3.79667 77.6051ZM3.3459 72.5059H10.406V74.8848H3.3459V72.5059ZM51.7265 69.3426H48.5521C48.5097 69.0178 48.423 68.7248 48.2918 68.4633C48.1606 68.2018 47.9869 67.9782 47.7712 67.7926C47.5553 67.6071 47.2992 67.4657 47.0028 67.3687C46.7109 67.2675 46.3871 67.2169 46.0315 67.2169C45.4009 67.2169 44.8569 67.3708 44.3998 67.6788C43.9469 67.9866 43.5977 68.4316 43.3522 69.0136C43.1109 69.5956 42.9903 70.3001 42.9903 71.1267C42.9903 71.9871 43.113 72.7084 43.3586 73.2904C43.6083 73.8682 43.9575 74.3047 44.4062 74.6C44.8591 74.891 45.3945 75.0365 46.0124 75.0365C46.3595 75.0365 46.6748 74.9923 46.9585 74.9036C47.2463 74.8152 47.4981 74.6865 47.7139 74.5177C47.9341 74.3449 48.1139 74.136 48.2536 73.8915C48.3975 73.6425 48.4971 73.3621 48.5521 73.0501L51.7265 73.0689C51.6715 73.6425 51.5044 74.2078 51.225 74.7644C50.9498 75.3212 50.571 75.8294 50.0885 76.2892C49.606 76.7447 49.0177 77.1075 48.3235 77.3773C47.6336 77.6472 46.8421 77.7822 45.9489 77.7822C44.7722 77.7822 43.7183 77.525 42.7871 77.0104C41.8603 76.4916 41.128 75.7367 40.5904 74.7456C40.0528 73.7544 39.7841 72.548 39.7841 71.1267C39.7841 69.7012 40.0571 68.4927 40.6031 67.5015C41.1491 66.5103 41.8877 65.7575 42.8189 65.243C43.7501 64.7285 44.7935 64.4712 45.9489 64.4712C46.7362 64.4712 47.4642 64.5808 48.133 64.8C48.8018 65.0152 49.3901 65.3315 49.898 65.7491C50.406 66.1625 50.8186 66.6707 51.136 67.2738C51.4536 67.877 51.6504 68.5665 51.7265 69.3426ZM81.7633 77.6051H78.3857L82.7729 64.6483H86.9568L91.3441 77.6051H87.9663L84.9124 67.9128H84.8109L81.7633 77.6051ZM81.3126 72.5059H88.3727V74.8848H81.3126V72.5059ZM123.308 77.6051H118.501V64.6483H123.301C124.626 64.6483 125.767 64.9077 126.723 65.4264C127.684 65.941 128.425 66.6834 128.946 67.6534C129.466 68.6192 129.726 69.775 129.726 71.1204C129.726 72.47 129.466 73.63 128.946 74.6C128.429 75.5701 127.691 76.3145 126.73 76.8333C125.769 77.3479 124.628 77.6051 123.308 77.6051ZM121.644 74.9353H123.187C123.915 74.9353 124.531 74.813 125.035 74.5683C125.543 74.3195 125.926 73.9167 126.184 73.36C126.446 72.799 126.577 72.0525 126.577 71.1204C126.577 70.1882 126.446 69.446 126.184 68.8934C125.921 68.3367 125.534 67.936 125.022 67.6913C124.514 67.4425 123.888 67.3181 123.143 67.3181H121.644V74.9353ZM157.32 77.6051V64.6483H166.385V67.1916H160.462V69.8487H165.921V72.3983H160.462V75.0619H166.385V77.6051H157.32ZM194.111 64.6483H198.003L201.305 72.6703H201.458L204.759 64.6483H208.65V77.6051H205.591V69.6463H205.482L202.359 77.5228H200.403L197.279 69.602H197.171V77.6051H194.111V64.6483ZM235.721 64.6483H239.232L241.98 70.0701H242.095L244.844 64.6483H248.355L243.6 73.2777V77.6051H240.476V73.2777L235.721 64.6483Z" fill="#191919"/>
<path d="M26.303 4.3508L20.7121 10.4655C17.7576 8.74433 15.6364 7.86864 14.3485 7.86864C13.8572 7.87311 13.3726 7.98336 12.928 8.19183C12.4835 8.40031 12.0893 8.70209 11.7727 9.07649C11.4205 9.42638 11.1424 9.84326 10.955 10.3023C10.7676 10.7614 10.6747 11.2533 10.6818 11.7488C10.6818 13.8022 12.5455 15.5686 16.2879 17.0784C18.4461 17.939 20.5205 18.9954 22.4848 20.2339C23.9512 21.2411 25.1561 22.5815 26 24.1443C26.942 25.7953 27.4282 27.6655 27.4091 29.5645C27.4058 31.3393 27.0167 33.0923 26.2686 34.703C25.5206 36.3138 24.4314 37.7439 23.0758 38.8951C20.3002 41.4884 16.6226 42.9065 12.8182 42.8508C8.48485 42.8508 4.22727 40.8126 0 36.8116L5.92424 29.9269C8.56061 32.6445 11.0455 34.0184 13.3485 34.0184C13.9452 33.9846 14.5294 33.8338 15.0676 33.5747C15.6058 33.3158 16.0874 32.9534 16.4848 32.5086C16.9327 32.1366 17.2985 31.6764 17.5592 31.1568C17.82 30.6371 17.9702 30.0693 18 29.489C18 27.3149 15.702 25.4025 11.1061 23.7518C9.11853 23.1264 7.23079 22.2214 5.5 21.0643C4.28744 20.0991 3.33464 18.8488 2.72727 17.4257C1.94465 15.8905 1.52976 14.1954 1.51515 12.4735C1.44236 10.7944 1.72744 9.11888 2.35161 7.55747C2.97577 5.99605 3.92488 4.58413 5.13636 3.41472C6.42055 2.24861 7.92411 1.34793 9.55999 0.764817C11.1959 0.181706 12.9316 -0.0722454 14.6667 0.0176647C18.9647 -0.108451 23.1414 1.44689 26.303 4.3508ZM68.8939 36.6153L74.0455 42.5186L67.9848 46.3535L63.303 40.7824C60.2877 41.9679 57.0886 42.6218 53.8485 42.7149C51.033 42.807 48.2297 42.3089 45.6197 41.253C43.0095 40.197 40.6512 38.6067 38.697 36.5851C36.6939 34.4803 35.1339 31.9974 34.1086 29.2825C33.0835 26.5677 32.6138 23.676 32.7273 20.7775C32.7445 15.4465 34.8103 10.3247 38.5 6.46453C40.4185 4.33939 42.7824 2.66038 45.4242 1.54634C48.0661 0.432285 50.9212 -0.0895811 53.7879 0.0176647C56.5674 -0.0518061 59.3318 0.448385 61.9094 1.48723C64.4871 2.52607 66.8232 4.08144 68.7727 6.05688C70.7562 8.01149 72.3171 10.35 73.3594 12.9283C74.4017 15.5067 74.9033 18.2704 74.8333 21.0492C74.9461 26.7989 72.7667 32.3586 68.7727 36.5096L68.8939 36.6153ZM57.4091 33.8977L53.0303 28.7039L58.9394 24.8539L62.9849 29.6249C64.7797 27.3632 65.6606 24.5142 65.4546 21.6381C65.648 18.138 64.512 14.6938 62.2727 11.9904C61.2224 10.7911 59.9138 9.8436 58.4447 9.21879C56.9755 8.59395 55.3836 8.30791 53.7879 8.38198C52.2227 8.33863 50.6668 8.63484 49.2279 9.25008C47.7889 9.86533 46.5015 10.7849 45.4545 11.9451C43.2186 14.4831 42.047 17.7804 42.1818 21.1549C42.0467 24.5653 43.1494 27.9101 45.2879 30.5761C46.2294 31.7563 47.4315 32.704 48.8008 33.3455C50.1699 33.9872 51.6691 34.3053 53.1818 34.2751C54.5986 34.259 56.012 34.1327 57.4091 33.8977ZM82.5455 0.576292H91.4091V26.0316C91.3139 28.1122 92.0244 30.15 93.3939 31.7235C94.0486 32.4366 94.8514 32.999 95.7462 33.372C96.6409 33.7447 97.6065 33.919 98.5758 33.8826C99.6292 33.9463 100.684 33.7868 101.672 33.4147C102.659 33.0427 103.556 32.4662 104.303 31.7235C105.752 30.0202 106.48 27.8221 106.333 25.5937V0.576292H115.152V27.5263C115.108 30.0871 114.487 32.6053 113.333 34.8941C112.146 37.4296 110.147 39.5005 107.652 40.7824C105.008 42.1626 102.06 42.8632 99.0758 42.8206C93.3636 42.8206 89.1667 41.2353 86.5152 38.0496C84.0305 35.2891 82.6218 31.732 82.5455 28.0245V0.576292ZM136.061 0.576292H143.015L160.076 42.2016H150.985L147.561 34.0184H131.621L128.348 42.2016H119.348L136.061 0.576292ZM139.545 14.1645L134.682 26.4392H144.576L139.545 14.2098V14.1645ZM166.561 0.576292H180.303C183.908 0.382974 187.452 1.5653 190.212 3.88276C191.432 5.01512 192.388 6.39864 193.017 7.93704C193.644 9.47542 193.929 11.1317 193.848 12.7906C193.802 15.1018 193.232 17.3726 192.182 19.4337C190.864 21.9279 188.676 23.8558 186.03 24.8539L197.697 42.2016H187.394L176.576 26.1071H175.561V42.2016H166.561V0.576292ZM175.652 8.00453V18.8449H177.591C182.277 18.8449 184.621 16.9324 184.621 13.1077C184.647 12.3838 184.492 11.6649 184.173 11.0145C183.853 10.3641 183.377 9.80216 182.788 9.37845C181.292 8.37836 179.509 7.89561 177.712 8.00453H175.652ZM204.894 0.576292H228.409V8.81982H213.894V33.9581H234.5V42.2016H204.894V0.576292ZM230.652 17.3351H222.5V25.4428H230.652V17.3351Z" fill="#191919"/>
<path d="M234.015 0.576492H248.212V42.2017H239.348V8.82003H232.47L234.015 0.576492Z" fill="#ED1C24"/>
</g>
<defs>
<clipPath id="clip0_2960_122">
<rect width="250" height="77" fill="white"/>
</clipPath>
</defs>
</svg>
